# xmcd
#
# Track frame offsets:
#	150
#	17383
#	34737
#	45970
#	63485
#	78417
#	90365
#	108562
#	126300
#	146049
#	161581
#	179491
#	196742
#	214055
#	234258
#	248286
#	280223
#	293172
#	313376
#	332874
#
# Disc length: 4538 seconds
# Revision: 1
# Processed by: cddbd v1.5.2PL0 Copyright (c) Steve Scherf et al.
# Submitted via: dBpowerAMP V12.0
#
DISCID=1511b814
DTITLE=Alan Jackson - The Alan Jackson Story, Disc 2
DYEAR=2015
DGENRE=Country
TTITLE0=Livin' On Love
TTITLE1=I Don't Even Know Your Name
TTITLE2=Tall, Tall Trees
TTITLE3=I'll Try
TTITLE4=Home
TTITLE5=Little Bitty
TTITLE6=Who's Cheatin' Who
TTITLE7=There Goes
TTITLE8=Between The Devil And Me
TTITLE9=A House With No Curtains
TTITLE10=I'll Go On Loving You
TTITLE11=Right On The Money
TTITLE12=Gone Crazy
TTITLE13=Little Man
TTITLE14=Pop A Top
TTITLE15=The Blues Man
TTITLE16=It Must Be Love
TTITLE17=Wings (PU)
TTITLE18=Seguro Que Hell Yes (PU)
TTITLE19=The Star-Spangled Banner (PU)
EXTD=
EXTT0=
EXTT1=
EXTT2=
EXTT3=
EXTT4=
EXTT5=
EXTT6=
EXTT7=
EXTT8=
EXTT9=
EXTT10=
EXTT11=
EXTT12=
EXTT13=
EXTT14=
EXTT15=
EXTT16=
EXTT17=
EXTT18=
EXTT19=
PLAYORDER=
